<?xml version="1.0" standalone="no"?>
<!DOCTYPE svg PUBLIC "-//W3C//DTD SVG 20010904//EN"
 "http://www.w3.org/TR/2001/REC-SVG-20010904/DTD/svg10.dtd">
<svg version="1.0" xmlns="http://www.w3.org/2000/svg"
 width="80.000000pt" height="35.000000pt" viewBox="0 0 80.000000 35.000000"
 preserveAspectRatio="xMidYMid meet">

<g transform="translate(0.000000,35.000000) scale(0.100000,-0.100000)"
fill="#000000" stroke="none">
<path d="M110 231 c19 -30 30 -62 30 -85 0 -20 5 -36 10 -36 6 0 10 17 10 38
0 21 11 54 25 77 26 43 30 55 17 55 -5 0 -17 -16 -28 -35 -10 -19 -22 -35 -26
-35 -5 0 -16 16 -25 35 -9 19 -23 35 -30 35 -8 0 -2 -17 17 -49z"/>
<path d="M220 210 c-44 -44 -8 -102 60 -98 40 3 40 3 40 44 0 67 -56 98 -100
54z m78 -17 c6 -10 6 -28 1 -40 -14 -39 -79 -25 -79 17 0 38 61 56 78 23z"/>
<path d="M361 217 c-13 -13 -15 -107 -2 -107 6 0 11 21 13 48 3 39 6 47 23 47
17 0 20 -8 23 -47 2 -27 7 -48 12 -48 5 0 10 21 12 48 3 43 5 47 28 47 23 0
25 -4 28 -47 4 -57 22 -65 22 -10 0 62 -19 79 -88 79 -33 1 -65 -4 -71 -10z"/>
<path d="M560 210 c-16 -16 -20 -33 -20 -85 0 -37 4 -65 10 -65 6 0 10 13 10
30 0 28 2 29 30 23 38 -7 70 19 70 57 0 54 -62 78 -100 40z m78 -37 c3 -28 -1
-33 -23 -39 -29 -7 -55 10 -55 35 0 25 22 42 50 39 20 -2 26 -9 28 -35z"/>
<path d="M685 221 c-3 -6 -1 -19 4 -29 6 -11 9 -21 7 -23 -2 -2 -6 -16 -10
-31 -6 -25 -4 -28 18 -28 24 0 25 2 23 57 -2 44 -6 59 -19 61 -9 2 -19 -2 -23
-7z"/>
</g>
</svg>
